<svg width="1288" height="186" viewBox="0 0 1288 186" fill="none" xmlns="http://www.w3.org/2000/svg">
<path d="M1210.42 57.7533V137.485L1224.12 139.674V141.196H1185.3V139.674L1199.29 137.485V52.5203C1198.27 52.1397 1196.62 51.5688 1194.34 50.8077C1192.06 49.9831 1188.76 48.8096 1184.44 47.2873V45.765L1209.85 40.8174H1210.42V57.7533ZM1249.05 139.674L1262.84 137.485V75.8309C1262.84 69.5513 1262.08 64.572 1260.56 60.8931C1259.1 57.2141 1256.69 54.5818 1253.33 52.996C1250.03 51.4102 1245.65 50.6174 1240.2 50.6174C1234.49 50.6174 1228.78 51.4737 1223.07 53.1863C1217.43 54.8989 1212.64 56.9604 1208.71 59.3708L1208.23 57.6581C1212.92 54.4232 1217.08 51.7591 1220.69 49.6659C1224.31 47.5727 1227.54 45.987 1230.4 44.9086C1233.32 43.7669 1236.08 42.974 1238.68 42.53C1241.34 42.086 1244.1 41.864 1246.95 41.864C1256.72 41.864 1263.67 44.2743 1267.79 49.095C1271.91 53.9157 1273.98 61.908 1273.98 73.0717V137.485L1287.77 139.674V141.196H1249.05V139.674Z" fill="#0A4D49"/>
<path d="M1128.3 185.439C1121.77 185.439 1115.99 184.9 1110.98 183.822C1106.04 182.807 1101.88 181.348 1098.52 179.445C1095.22 177.542 1092.72 175.259 1091 172.595C1089.29 169.994 1088.43 167.108 1088.43 163.936C1088.43 161.019 1089.16 158.259 1090.62 155.659C1092.15 153.058 1094.37 150.679 1097.28 148.523C1100.26 146.366 1104.01 144.431 1108.51 142.719C1113.08 141.006 1118.41 139.516 1124.49 138.247L1131.92 137.01L1129.35 139.484C1121.74 140.753 1115.61 142.433 1110.98 144.527C1106.42 146.683 1103.09 149.22 1100.99 152.138C1098.96 155.056 1097.95 158.323 1097.95 161.938C1097.95 166.188 1099.15 169.835 1101.56 172.88C1104.04 175.925 1107.62 178.272 1112.32 179.921C1117.07 181.57 1122.88 182.395 1129.73 182.395C1138.16 182.395 1145.39 181.443 1151.42 179.54C1157.51 177.637 1162.17 174.973 1165.41 171.548C1168.64 168.123 1170.26 164.158 1170.26 159.655C1170.26 157.118 1169.63 154.866 1168.36 152.899C1167.09 150.933 1164.99 149.22 1162.08 147.762C1159.22 146.303 1155.39 145.034 1150.56 143.956C1145.74 142.941 1139.78 142.116 1132.68 141.482C1126.08 140.784 1120.63 139.865 1116.31 138.723C1112.06 137.518 1108.73 136.09 1106.32 134.441C1103.97 132.792 1102.29 130.953 1101.28 128.923C1100.33 126.893 1099.85 124.673 1099.85 122.263C1099.85 117.886 1101.72 114.207 1105.47 111.226C1109.27 108.181 1114.82 105.739 1122.12 103.9L1123.16 105.517C1117.71 106.405 1113.93 107.927 1111.84 110.084C1109.81 112.177 1108.8 114.461 1108.8 116.934C1108.8 118.774 1109.18 120.423 1109.94 121.882C1110.7 123.341 1112.16 124.641 1114.31 125.783C1116.53 126.861 1119.71 127.844 1123.83 128.732C1127.95 129.557 1133.34 130.35 1140 131.111C1147.3 131.809 1153.42 132.855 1158.37 134.251C1163.38 135.646 1167.41 137.359 1170.45 139.389C1173.49 141.355 1175.71 143.639 1177.11 146.239C1178.51 148.84 1179.2 151.789 1179.2 155.088C1179.2 160.797 1177.17 165.934 1173.11 170.501C1169.12 175.132 1163.31 178.779 1155.7 181.443C1148.15 184.107 1139.02 185.439 1128.3 185.439ZM1130.2 106.564C1123.73 106.564 1117.87 105.232 1112.6 102.567C1107.34 99.9034 1103.15 96.2245 1100.04 91.5306C1097 86.7733 1095.48 81.2866 1095.48 75.0704C1095.48 68.6006 1096.97 62.8601 1099.95 57.8491C1102.93 52.8381 1106.99 48.9372 1112.13 46.1462C1117.26 43.2919 1123.04 41.8647 1129.44 41.8647C1134.39 41.8647 1138.99 42.6258 1143.24 44.1482C1147.49 45.6705 1151.17 47.8588 1154.28 50.7132C1157.45 53.5041 1159.92 56.8342 1161.7 60.7035C1163.47 64.5093 1164.36 68.7591 1164.36 73.453C1164.36 79.8594 1162.87 85.5682 1159.89 90.5792C1156.97 95.5902 1152.94 99.5228 1147.81 102.377C1142.67 105.168 1136.8 106.564 1130.2 106.564ZM1131.73 104.185C1138.01 103.931 1143.17 101.14 1147.23 95.8122C1151.29 90.4206 1153.17 82.9675 1152.85 73.453C1152.47 64.319 1150.03 57.1197 1145.52 51.855C1141.02 46.5902 1135.15 44.053 1127.92 44.2433C1121.77 44.4336 1116.66 47.2245 1112.6 52.6161C1108.54 57.9443 1106.67 65.3973 1106.99 74.9753C1107.3 83.9824 1109.72 91.15 1114.22 96.4782C1118.79 101.806 1124.62 104.375 1131.73 104.185ZM1138.86 44.6239L1135.72 42.3404C1142.89 42.9747 1148.79 43.2601 1153.42 43.1967C1158.11 43.1333 1161.89 42.8796 1164.74 42.4355C1167.6 41.9281 1169.88 41.4841 1171.59 41.1035C1173.3 40.6595 1174.79 40.4375 1176.06 40.4375C1177.01 40.4375 1177.71 40.7229 1178.16 41.2938C1178.66 41.8647 1178.92 42.7527 1178.92 43.9579C1178.92 46.6854 1178.16 48.842 1176.63 50.4278C1175.18 51.9501 1173.4 52.7113 1171.31 52.7113C1169.91 52.7113 1168.58 52.3624 1167.31 51.6647C1166.04 50.9669 1164.36 50.1423 1162.27 49.1909C1160.17 48.2394 1157.29 47.3197 1153.61 46.4317C1149.93 45.5436 1145.01 44.9411 1138.86 44.6239Z" fill="#0A4D49"/>
<path d="M1070.43 18.9348C1067.51 18.9348 1065.23 17.9833 1063.58 16.0804C1061.93 14.1141 1061.11 11.9257 1061.11 9.51538C1061.11 7.10503 1061.93 5.01183 1063.58 3.23579C1065.23 1.3963 1067.51 0.476562 1070.43 0.476562C1073.28 0.476562 1075.5 1.3963 1077.09 3.23579C1078.74 5.01183 1079.56 7.10503 1079.56 9.51538C1079.56 11.9257 1078.74 14.1141 1077.09 16.0804C1075.5 17.9833 1073.28 18.9348 1070.43 18.9348ZM1077.09 40.8182V51.9503V137.486L1090.79 139.674V141.197H1051.97V139.674L1065.96 137.486V52.5211C1065.26 52.2674 1064.09 51.8551 1062.44 51.2842C1060.85 50.7134 1059.04 50.0791 1057.01 49.3813C1055.05 48.6202 1053.08 47.9224 1051.11 47.2881V45.7658L1076.42 40.8182H1077.09Z" fill="#0A4D49"/>
<path d="M1018.41 41.8643C1022.35 41.8643 1025.96 42.3717 1029.26 43.3866C1032.62 44.338 1036.05 45.8604 1039.54 47.9536L1042.58 72.2157H1040.58L1030.21 48.239L1033.83 52.7108C1031.16 49.9833 1028.5 48.017 1025.84 46.8118C1023.17 45.5432 1020.19 44.9089 1016.89 44.9089C1009.98 44.9089 1004.68 46.5898 1001 49.9516C997.388 53.25 995.58 57.595 995.58 62.9866C995.58 65.9678 996.151 68.6636 997.292 71.0739C998.434 73.4843 1000.72 75.8312 1004.14 78.1147C1007.57 80.3347 1012.64 82.6499 1019.37 85.0603C1024.44 86.8998 1028.66 88.8344 1032.02 90.8642C1035.38 92.8939 1038.01 95.0823 1039.92 97.4292C1041.88 99.7761 1043.28 102.345 1044.1 105.136C1044.93 107.863 1045.34 110.876 1045.34 114.175C1045.34 119.63 1043.85 124.546 1040.87 128.922C1037.95 133.299 1033.96 136.756 1028.88 139.293C1023.81 141.83 1018 143.099 1011.47 143.099C1007.03 143.099 1002.91 142.687 999.1 141.862C995.358 141.038 991.837 139.769 988.539 138.056L982.926 110.369H984.924L997.768 137.485L994.819 133.584C996.214 134.79 997.863 135.868 999.766 136.819C1001.73 137.771 1003.89 138.5 1006.24 139.008C1008.58 139.515 1011.06 139.769 1013.66 139.769C1020.38 139.769 1025.9 137.834 1030.21 133.965C1034.53 130.032 1036.68 124.895 1036.68 118.551C1036.68 115.824 1036.3 113.382 1035.54 111.225C1034.78 109.069 1033.48 107.071 1031.64 105.231C1029.86 103.328 1027.36 101.552 1024.12 99.903C1020.95 98.1904 1016.92 96.446 1012.04 94.67C1005.51 92.3231 1000.43 89.8176 996.817 87.1535C993.265 84.426 990.759 81.4448 989.3 78.2098C987.905 74.9114 987.207 71.2642 987.207 67.2681C987.207 61.9399 988.603 57.4047 991.393 53.6623C994.248 49.8565 998.022 46.9387 1002.72 44.9089C1007.47 42.8791 1012.71 41.8643 1018.41 41.8643Z" fill="#0A4D49"/>
<path d="M942.313 41.8643C949.1 41.8643 954.904 43.3232 959.725 46.2409C964.609 49.0953 968.383 53.1231 971.047 58.3244C973.775 63.4623 975.329 69.4882 975.709 76.4021H907.775V72.8817H968.002L964.197 75.2603C963.562 68.6001 962.23 63.0817 960.201 58.705C958.171 54.3283 955.475 51.0617 952.113 48.905C948.815 46.685 944.819 45.5749 940.125 45.5749C932.957 45.5749 927.058 47.2558 922.428 50.6176C917.797 53.916 914.372 58.6099 912.152 64.6992C909.932 70.7885 908.822 78.0195 908.822 86.3923C908.822 97.1121 910.249 105.992 913.104 113.033C916.021 120.074 920.208 125.339 925.663 128.827C931.181 132.252 937.841 133.965 945.643 133.965C949.766 133.965 953.572 133.489 957.061 132.538C960.549 131.523 963.943 129.874 967.241 127.59C970.603 125.243 973.965 122.135 977.327 118.266L978.564 119.218C974.25 125.18 970.159 129.906 966.29 133.394C962.421 136.883 958.425 139.388 954.302 140.911C950.242 142.37 945.77 143.099 940.886 143.099C932.386 143.099 924.87 141.26 918.337 137.581C911.867 133.902 906.824 128.415 903.208 121.12C899.593 113.763 897.785 104.597 897.785 93.6234C897.785 84.2991 899.529 75.736 903.018 67.9341C906.507 60.0688 911.581 53.7574 918.241 49.0002C924.902 44.2429 932.926 41.8643 942.313 41.8643Z" fill="#0A4D49"/>
<path d="M877.827 71.7405C877.827 50.8719 871.706 35.2046 859.464 24.7386C847.285 14.2726 829.874 9.03964 807.229 9.03964H782.872L784.013 5.13867H812.557C829.43 5.13867 843.638 7.7076 855.182 12.8455C866.79 17.9833 875.575 25.4364 881.538 35.2046C887.563 44.9729 890.576 56.8661 890.576 70.8842C890.576 86.3612 887.183 99.3327 880.396 109.799C873.672 120.201 864.507 128.035 852.899 133.3C841.291 138.564 828.193 141.197 813.604 141.197H784.013L782.872 137.296H810.464C824.355 137.296 836.312 135.076 846.334 130.636C856.419 126.195 864.189 119.155 869.644 109.513C875.099 99.8718 877.827 87.2809 877.827 71.7405ZM762.225 141.197V139.484L779.542 136.249V9.99109L762.225 6.85129V5.13867H791.72V141.197H762.225Z" fill="#0A4D49"/>
<path d="M682.269 41.8643C689.056 41.8643 694.86 43.3232 699.68 46.2409C704.565 49.0953 708.339 53.1231 711.003 58.3244C713.73 63.4623 715.284 69.4882 715.665 76.4021H647.731V72.8817H707.958L704.152 75.2603C703.518 68.6001 702.186 63.0817 700.156 58.705C698.126 54.3283 695.431 51.0617 692.069 48.905C688.77 46.685 684.774 45.5749 680.08 45.5749C672.913 45.5749 667.014 47.2558 662.383 50.6176C657.753 53.916 654.328 58.6099 652.108 64.6992C649.888 70.7885 648.778 78.0195 648.778 86.3923C648.778 97.1121 650.205 105.992 653.059 113.033C655.977 120.074 660.163 125.339 665.618 128.827C671.137 132.252 677.797 133.965 685.599 133.965C689.722 133.965 693.528 133.489 697.016 132.538C700.505 131.523 703.899 129.874 707.197 127.59C710.559 125.243 713.921 122.135 717.282 118.266L718.519 119.218C714.206 125.18 710.115 129.906 706.245 133.394C702.376 136.883 698.38 139.388 694.257 140.911C690.198 142.37 685.726 143.099 680.842 143.099C672.342 143.099 664.825 141.26 658.292 137.581C651.822 133.902 646.78 128.415 643.164 121.12C639.549 113.763 637.741 104.597 637.741 93.6234C637.741 84.2991 639.485 75.736 642.974 67.9341C646.462 60.0688 651.537 53.7574 658.197 49.0002C664.857 44.2429 672.881 41.8643 682.269 41.8643Z" fill="#0A4D49"/>
<path d="M634.522 42.0543C636.615 42.0543 638.233 42.6569 639.375 43.862C640.58 45.0038 641.182 46.6213 641.182 48.7145C641.182 51.0614 640.453 52.9643 638.994 54.4232C637.535 55.8187 635.664 56.5164 633.38 56.5164C632.112 56.5164 630.97 56.4212 629.955 56.2309C629.004 55.9772 627.957 55.7235 626.815 55.4698C625.674 55.2161 624.215 55.0892 622.439 55.0892C620.282 55.0892 618.252 55.4064 616.349 56.0407C614.446 56.675 612.353 57.785 610.07 59.3708C607.786 60.8931 604.995 63.0814 601.697 65.9358V63.5571C606.898 58.7364 611.243 54.8989 614.732 52.0445C618.284 49.1902 621.233 47.0336 623.58 45.5747C625.927 44.1158 627.925 43.1643 629.575 42.7203C631.287 42.2763 632.936 42.0543 634.522 42.0543ZM603.219 61.4639V137.485L618.823 139.674V141.196H578.101V139.674L592.087 137.485V52.5203C591.263 52.2031 590.121 51.7908 588.662 51.2834C587.267 50.7759 585.586 50.2051 583.619 49.5708C581.716 48.873 579.591 48.1119 577.245 47.2873V45.765L602.648 40.8174H603.219V61.4639Z" fill="#0A4D49"/>
<path d="M546.37 41.8643C552.205 41.8643 557.026 42.4986 560.832 43.7672C564.701 44.9723 567.587 46.5581 569.49 48.5244C571.393 50.4908 572.345 52.584 572.345 54.804C572.345 56.1361 572.059 57.3413 571.488 58.4196C570.917 59.4345 570.124 60.259 569.11 60.8934C568.158 61.4642 567.016 61.7497 565.684 61.7497C565.177 61.7497 564.384 61.2422 563.306 60.2273C562.291 59.149 561.022 57.817 559.5 56.2312C557.978 54.6455 556.202 53.0597 554.172 51.474C552.205 49.8882 550.017 48.5879 547.607 47.573C545.26 46.4947 542.691 45.9555 539.9 45.9555C533.493 45.9555 527.943 47.6047 523.249 50.9031C518.619 54.138 515.035 58.927 512.498 65.27C510.024 71.5496 508.787 79.2881 508.787 88.4855C508.787 98.3807 510.151 106.722 512.879 113.509C515.606 120.232 519.602 125.339 524.867 128.827C530.132 132.252 536.57 133.965 544.181 133.965C549.827 133.965 555.091 132.823 559.976 130.54C564.86 128.193 569.903 124.102 575.104 118.266L576.246 119.218C571.805 125.18 567.682 129.906 563.877 133.394C560.134 136.883 556.328 139.388 552.459 140.911C548.59 142.37 544.277 143.099 539.519 143.099C531.337 143.099 524.074 141.291 517.731 137.676C511.451 133.997 506.536 128.605 502.984 121.501C499.495 114.333 497.751 105.548 497.751 95.1457C497.751 87.3438 498.892 80.2079 501.176 73.738C503.459 67.2047 506.726 61.5594 510.976 56.8021C515.226 52.0448 520.332 48.3659 526.294 45.7652C532.257 43.1646 538.948 41.8643 546.37 41.8643Z" fill="#0A4D49"/>
<path d="M471.165 78.1148L471.545 81.0643C460.572 84.4896 451.819 87.6611 445.285 90.5789C438.815 93.4332 433.931 96.2242 430.633 98.9517C427.398 101.679 425.241 104.438 424.163 107.229C423.148 110.02 422.641 113.065 422.641 116.363C422.641 122.262 424.417 126.924 427.969 130.35C431.521 133.775 436.151 135.488 441.86 135.488C446.427 135.488 450.582 134.568 454.324 132.728C458.066 130.889 461.048 128.256 463.268 124.831C465.551 121.343 466.693 117.251 466.693 112.557V70.408C466.693 63.0501 464.98 57.3731 461.555 53.377C458.13 49.3175 452.516 47.2877 444.714 47.2877C440.909 47.2877 437.103 47.7 433.297 48.5246C429.491 49.2857 425.717 50.4909 421.975 52.1401L427.778 48.6197C427.525 50.9032 427.176 53.0916 426.732 55.1848C426.351 57.2145 425.907 58.9906 425.4 60.5129C424.956 62.0352 424.448 63.1453 423.878 63.843C423.18 64.6676 422.165 65.3336 420.833 65.8411C419.501 66.2851 418.169 66.5071 416.837 66.5071C414.997 66.5071 413.57 66.1582 412.555 65.4605C411.604 64.6993 411.128 63.5893 411.128 62.1304C411.128 59.7835 412.397 57.4365 414.934 55.0896C417.534 52.6793 420.833 50.4909 424.829 48.5246C428.825 46.5582 433.011 45.0042 437.388 43.8625C441.765 42.6573 445.793 42.0547 449.472 42.0547C456.703 42.0547 462.38 43.1647 466.503 45.3848C470.626 47.6048 473.543 50.7446 475.256 54.8042C476.969 58.8637 477.825 63.621 477.825 69.076V125.022C477.825 127.749 478.237 129.874 479.062 131.396C479.886 132.919 480.997 133.997 482.392 134.631C483.787 135.266 485.31 135.583 486.959 135.583C489.116 135.583 491.05 135.329 492.763 134.822C494.539 134.251 496.664 133.236 499.138 131.777V133.489C495.839 136.978 492.763 139.452 489.908 140.911C487.118 142.306 484.073 143.004 480.774 143.004C477.286 143.004 474.431 142.275 472.211 140.816C470.055 139.293 468.532 136.724 467.644 133.109C466.756 129.493 466.408 124.546 466.598 118.266L467.169 117.981C466.027 123.372 464.061 127.939 461.27 131.682C458.479 135.424 455.085 138.278 451.089 140.245C447.156 142.148 442.907 143.099 438.34 143.099C430.03 143.099 423.37 140.974 418.359 136.724C413.412 132.411 410.938 126.227 410.938 118.171C410.938 114.175 411.604 110.623 412.936 107.515C414.268 104.343 416.964 101.33 421.023 98.476C425.083 95.5582 431.109 92.4818 439.101 89.2468C447.093 86.0119 457.781 82.3012 471.165 78.1148Z" fill="#0A4D49"/>
<path d="M372.307 118.742C372.307 123.88 373.703 127.781 376.494 130.445C379.284 133.046 383.407 134.346 388.862 134.346C392.097 134.346 395.206 134.124 398.187 133.68C401.231 133.173 404.91 132.348 409.224 131.206V132.824C403.769 135.551 399.424 137.613 396.189 139.008C392.954 140.404 390.195 141.355 387.911 141.863C385.628 142.37 383.154 142.624 380.49 142.624C377.064 142.624 373.893 141.831 370.975 140.245C368.057 138.659 365.679 136.249 363.839 133.014C362.063 129.779 361.175 125.688 361.175 120.74V52.521L348.616 46.3365V45.1948C350.329 44.3068 351.819 43.5456 353.088 42.9113C354.356 42.2136 355.562 41.5476 356.703 40.9133C357.845 40.279 359.082 39.5812 360.414 38.8201C361.746 38.0589 363.3 37.1709 365.076 36.156C366.916 35.0777 369.136 33.8408 371.736 32.4453H372.307V47.288V118.742ZM368.882 50.9035V43.7676H406.56L405.418 50.9035H368.882Z" fill="#0A4D49"/>
<path d="M327.091 18.9348C324.173 18.9348 321.889 17.9833 320.24 16.0804C318.591 14.1141 317.767 11.9257 317.767 9.51538C317.767 7.10503 318.591 5.01183 320.24 3.23579C321.889 1.3963 324.173 0.476562 327.091 0.476562C329.945 0.476562 332.165 1.3963 333.751 3.23579C335.4 5.01183 336.225 7.10503 336.225 9.51538C336.225 11.9257 335.4 14.1141 333.751 16.0804C332.165 17.9833 329.945 18.9348 327.091 18.9348ZM333.751 40.8182V51.9503V137.486L347.452 139.674V141.197H308.633V139.674L322.619 137.486V52.5211C321.921 52.2674 320.748 51.8551 319.099 51.2842C317.513 50.7134 315.705 50.0791 313.675 49.3813C311.709 48.6202 309.743 47.9224 307.776 47.2881V45.7658L333.085 40.8182H333.751Z" fill="#0A4D49"/>
<path d="M264.412 139.674L278.208 137.485V75.8309C278.208 69.5513 277.447 64.5721 275.925 60.8931C274.466 57.2141 272.087 54.5818 268.789 52.996C265.491 51.4103 261.082 50.6174 255.564 50.6174C249.855 50.6174 244.146 51.4737 238.438 53.1863C232.792 54.8989 228.003 56.9604 224.071 59.3708L223.595 57.6582C228.289 54.4232 232.443 51.7591 236.059 49.6659C239.674 47.5727 242.909 45.987 245.764 44.9087C248.682 43.7669 251.441 42.974 254.041 42.53C256.705 42.086 259.465 41.864 262.319 41.864C272.087 41.864 279.033 44.2744 283.156 49.0951C287.279 53.9158 289.34 61.908 289.34 73.0717V137.485L303.136 139.674V141.196H264.412V139.674ZM239.484 141.196H200.665V139.674L214.651 137.485V12.3689C213.827 12.1152 212.526 11.7346 210.75 11.2272C208.974 10.6563 206.913 10.022 204.566 9.32426C202.219 8.62652 199.808 7.89708 197.335 7.13591V5.61358L225.212 0H225.783V28.5436V137.485L239.484 139.674V141.196Z" fill="#0A4D49"/>
<path d="M99.3319 15.4144L53.7572 143.1H51.0931L16.4602 10.2765L0 7.04159V5.13868H46.1455V7.04159L28.7339 10.1814L58.3242 127.591H55.4698L99.427 3.14062H102.377L146.429 127.305H143.955L172.404 10.4668L154.707 7.04159V5.13868H193.431V7.04159L176.971 10.562L143.194 143.1H140.53L95.2406 17.3173L99.3319 15.4144Z" fill="#0A4D49"/>
</svg>
