<svg width="1348" height="221" viewBox="0 0 1348 221" fill="none" xmlns="http://www.w3.org/2000/svg">
<path d="M1242.71 75.7533V155.485L1256.41 157.674V159.196H1217.59V157.674L1231.57 155.485V70.5203C1230.56 70.1397 1228.91 69.5688 1226.63 68.8077C1224.34 67.9831 1221.04 66.8096 1216.73 65.2873V63.765L1242.14 58.8174H1242.71V75.7533ZM1281.34 157.674L1295.13 155.485V93.8309C1295.13 87.5513 1294.37 82.572 1292.85 78.8931C1291.39 75.2141 1288.98 72.5818 1285.62 70.996C1282.32 69.4102 1277.94 68.6174 1272.49 68.6174C1266.78 68.6174 1261.07 69.4737 1255.36 71.1863C1249.72 72.8989 1244.93 74.9604 1240.99 77.3708L1240.52 75.6581C1245.21 72.4232 1249.37 69.7591 1252.98 67.6659C1256.6 65.5727 1259.83 63.987 1262.69 62.9086C1265.6 61.7669 1268.36 60.974 1270.96 60.53C1273.63 60.086 1276.39 59.864 1279.24 59.864C1289.01 59.864 1295.96 62.2743 1300.08 67.095C1304.2 71.9157 1306.26 79.908 1306.26 91.0717V155.485L1320.06 157.674V159.196H1281.34V157.674Z" fill="#823203"/>
<path d="M1160.59 203.439C1154.05 203.439 1148.28 202.9 1143.27 201.822C1138.32 200.807 1134.17 199.348 1130.81 197.445C1127.51 195.542 1125 193.259 1123.29 190.595C1121.58 187.994 1120.72 185.108 1120.72 181.936C1120.72 179.019 1121.45 176.259 1122.91 173.659C1124.43 171.058 1126.65 168.679 1129.57 166.523C1132.55 164.366 1136.29 162.431 1140.8 160.719C1145.36 159.006 1150.69 157.516 1156.78 156.247L1164.2 155.01L1161.63 157.484C1154.02 158.753 1147.9 160.433 1143.27 162.527C1138.7 164.683 1135.37 167.22 1133.28 170.138C1131.25 173.056 1130.24 176.323 1130.24 179.938C1130.24 184.188 1131.44 187.835 1133.85 190.88C1136.33 193.925 1139.91 196.272 1144.6 197.921C1149.36 199.57 1155.16 200.395 1162.02 200.395C1170.45 200.395 1177.68 199.443 1183.71 197.54C1189.8 195.637 1194.46 192.973 1197.69 189.548C1200.93 186.123 1202.55 182.158 1202.55 177.655C1202.55 175.118 1201.91 172.866 1200.64 170.899C1199.38 168.933 1197.28 167.22 1194.36 165.762C1191.51 164.303 1187.67 163.034 1182.85 161.956C1178.03 160.941 1172.07 160.116 1164.96 159.482C1158.37 158.784 1152.91 157.865 1148.6 156.723C1144.35 155.518 1141.02 154.09 1138.61 152.441C1136.26 150.792 1134.58 148.953 1133.57 146.923C1132.62 144.893 1132.14 142.673 1132.14 140.263C1132.14 135.886 1134.01 132.207 1137.75 129.226C1141.56 126.181 1147.11 123.739 1154.4 121.9L1155.45 123.517C1150 124.405 1146.22 125.927 1144.13 128.084C1142.1 130.177 1141.08 132.461 1141.08 134.934C1141.08 136.774 1141.46 138.423 1142.22 139.882C1142.99 141.341 1144.45 142.641 1146.6 143.783C1148.82 144.861 1151.99 145.844 1156.12 146.732C1160.24 147.557 1165.63 148.35 1172.29 149.111C1179.59 149.809 1185.71 150.855 1190.65 152.251C1195.67 153.646 1199.69 155.359 1202.74 157.389C1205.78 159.355 1208 161.639 1209.4 164.239C1210.79 166.84 1211.49 169.789 1211.49 173.088C1211.49 178.797 1209.46 183.934 1205.4 188.501C1201.41 193.132 1195.6 196.779 1187.99 199.443C1180.44 202.107 1171.31 203.439 1160.59 203.439ZM1162.49 124.564C1156.02 124.564 1150.15 123.232 1144.89 120.567C1139.62 117.903 1135.44 114.224 1132.33 109.531C1129.29 104.773 1127.76 99.2866 1127.76 93.0704C1127.76 86.6006 1129.25 80.8601 1132.23 75.8491C1135.22 70.8381 1139.28 66.9372 1144.41 64.1462C1149.55 61.2919 1155.32 59.8647 1161.73 59.8647C1166.68 59.8647 1171.28 60.6258 1175.53 62.1482C1179.78 63.6705 1183.45 65.8588 1186.56 68.7132C1189.73 71.5041 1192.21 74.8342 1193.98 78.7035C1195.76 82.5093 1196.65 86.7591 1196.65 91.453C1196.65 97.8594 1195.16 103.568 1192.18 108.579C1189.26 113.59 1185.23 117.523 1180.09 120.377C1174.96 123.168 1169.09 124.564 1162.49 124.564ZM1164.01 122.185C1170.29 121.931 1175.46 119.14 1179.52 113.812C1183.58 108.421 1185.45 100.968 1185.14 91.453C1184.76 82.319 1182.31 75.1197 1177.81 69.855C1173.31 64.5902 1167.44 62.053 1160.21 62.2433C1154.05 62.4336 1148.95 65.2245 1144.89 70.6161C1140.83 75.9443 1138.96 83.3973 1139.28 92.9753C1139.59 101.982 1142 109.15 1146.51 114.478C1151.07 119.806 1156.91 122.375 1164.01 122.185ZM1171.15 62.6239L1168.01 60.3404C1175.18 60.9747 1181.08 61.2601 1185.71 61.1967C1190.4 61.1333 1194.17 60.8796 1197.03 60.4355C1199.88 59.9281 1202.17 59.4841 1203.88 59.1035C1205.59 58.6595 1207.08 58.4375 1208.35 58.4375C1209.3 58.4375 1210 58.7229 1210.44 59.2938C1210.95 59.8647 1211.21 60.7527 1211.21 61.9579C1211.21 64.6854 1210.44 66.842 1208.92 68.4278C1207.46 69.9501 1205.69 70.7113 1203.59 70.7113C1202.2 70.7113 1200.87 70.3624 1199.6 69.6647C1198.33 68.9669 1196.65 68.1423 1194.56 67.1909C1192.46 66.2394 1189.58 65.3197 1185.9 64.4317C1182.22 63.5436 1177.3 62.9411 1171.15 62.6239Z" fill="#823203"/>
<path d="M1102.72 36.9348C1099.8 36.9348 1097.52 35.9833 1095.87 34.0804C1094.22 32.1141 1093.39 29.9257 1093.39 27.5154C1093.39 25.105 1094.22 23.0118 1095.87 21.2358C1097.52 19.3963 1099.8 18.4766 1102.72 18.4766C1105.57 18.4766 1107.79 19.3963 1109.38 21.2358C1111.03 23.0118 1111.85 25.105 1111.85 27.5154C1111.85 29.9257 1111.03 32.1141 1109.38 34.0804C1107.79 35.9833 1105.57 36.9348 1102.72 36.9348ZM1109.38 58.8182V69.9503V155.486L1123.08 157.674V159.197H1084.26V157.674L1098.25 155.486V70.5211C1097.55 70.2674 1096.37 69.8551 1094.72 69.2842C1093.14 68.7134 1091.33 68.0791 1089.3 67.3813C1087.34 66.6202 1085.37 65.9224 1083.4 65.2881V63.7658L1108.71 58.8182H1109.38Z" fill="#823203"/>
<path d="M1050.7 59.8643C1054.63 59.8643 1058.25 60.3717 1061.55 61.3866C1064.91 62.338 1068.34 63.8604 1071.82 65.9536L1074.87 90.2157H1072.87L1062.5 66.239L1066.12 70.7108C1063.45 67.9833 1060.79 66.017 1058.12 64.8118C1055.46 63.5432 1052.48 62.9089 1049.18 62.9089C1042.27 62.9089 1036.97 64.5898 1033.29 67.9516C1029.67 71.25 1027.87 75.595 1027.87 80.9866C1027.87 83.9678 1028.44 86.6636 1029.58 89.0739C1030.72 91.4843 1033.01 93.8312 1036.43 96.1147C1039.86 98.3347 1044.93 100.65 1051.65 103.06C1056.73 104.9 1060.95 106.834 1064.31 108.864C1067.67 110.894 1070.3 113.082 1072.2 115.429C1074.17 117.776 1075.57 120.345 1076.39 123.136C1077.22 125.863 1077.63 128.876 1077.63 132.175C1077.63 137.63 1076.14 142.546 1073.16 146.922C1070.24 151.299 1066.24 154.756 1061.17 157.293C1056.09 159.83 1050.29 161.099 1043.76 161.099C1039.32 161.099 1035.19 160.687 1031.39 159.862C1027.65 159.038 1024.12 157.769 1020.83 156.056L1015.21 128.369H1017.21L1030.06 155.485L1027.11 151.584C1028.5 152.79 1030.15 153.868 1032.05 154.819C1034.02 155.771 1036.18 156.5 1038.52 157.008C1040.87 157.515 1043.34 157.769 1045.94 157.769C1052.67 157.769 1058.19 155.834 1062.5 151.965C1066.81 148.032 1068.97 142.895 1068.97 136.551C1068.97 133.824 1068.59 131.382 1067.83 129.225C1067.07 127.069 1065.77 125.071 1063.93 123.231C1062.15 121.328 1059.65 119.552 1056.41 117.903C1053.24 116.19 1049.21 114.446 1044.33 112.67C1037.79 110.323 1032.72 107.818 1029.1 105.153C1025.55 102.426 1023.05 99.4448 1021.59 96.2098C1020.19 92.9114 1019.49 89.2642 1019.49 85.2681C1019.49 79.9399 1020.89 75.4047 1023.68 71.6623C1026.54 67.8565 1030.31 64.9387 1035 62.9089C1039.76 60.8791 1044.99 59.8643 1050.7 59.8643Z" fill="#823203"/>
<path d="M974.601 59.8643C981.388 59.8643 987.192 61.3232 992.012 64.2409C996.897 67.0953 1000.67 71.1231 1003.33 76.3244C1006.06 81.4623 1007.62 87.4882 1008 94.4021H940.063V90.8817H1000.29L996.484 93.2603C995.85 86.6001 994.518 81.0817 992.488 76.705C990.458 72.3283 987.763 69.0617 984.401 66.905C981.102 64.685 977.106 63.5749 972.412 63.5749C965.245 63.5749 959.346 65.2558 954.715 68.6176C950.085 71.916 946.66 76.6099 944.44 82.6992C942.22 88.7885 941.11 96.0195 941.11 104.392C941.11 115.112 942.537 123.992 945.391 131.033C948.309 138.074 952.495 143.339 957.95 146.827C963.469 150.252 970.129 151.965 977.931 151.965C982.054 151.965 985.86 151.489 989.348 150.538C992.837 149.523 996.231 147.874 999.529 145.59C1002.89 143.243 1006.25 140.135 1009.61 136.266L1010.85 137.218C1006.54 143.18 1002.45 147.906 998.578 151.394C994.708 154.883 990.712 157.388 986.589 158.911C982.53 160.37 978.058 161.099 973.174 161.099C964.674 161.099 957.158 159.26 950.624 155.581C944.154 151.902 939.112 146.415 935.496 139.12C931.881 131.763 930.073 122.597 930.073 111.623C930.073 102.299 931.817 93.736 935.306 85.9341C938.794 78.0688 943.869 71.7574 950.529 67.0002C957.189 62.2429 965.213 59.8643 974.601 59.8643Z" fill="#823203"/>
<path d="M910.114 89.7405C910.114 68.8719 903.993 53.2046 891.751 42.7386C879.573 32.2726 862.161 27.0396 839.517 27.0396H815.159L816.301 23.1387H844.845C861.717 23.1387 875.926 25.7076 887.47 30.8455C899.078 35.9833 907.863 43.4364 913.825 53.2046C919.851 62.9729 922.864 74.8661 922.864 88.8842C922.864 104.361 919.47 117.333 912.683 127.799C905.96 138.201 896.794 146.035 885.186 151.3C873.579 156.564 860.48 159.197 845.891 159.197H816.301L815.159 155.296H842.751C856.643 155.296 868.599 153.076 878.621 148.636C888.707 144.195 896.477 137.155 901.932 127.513C907.387 117.872 910.114 105.281 910.114 89.7405ZM794.513 159.197V157.484L811.829 154.249V27.9911L794.513 24.8513V23.1387H824.008V159.197H794.513Z" fill="#823203"/>
<path d="M714.556 59.8643C721.343 59.8643 727.147 61.3232 731.968 64.2409C736.852 67.0953 740.626 71.1231 743.29 76.3244C746.018 81.4623 747.572 87.4882 747.952 94.4021H680.019V90.8817H740.246L736.44 93.2603C735.806 86.6001 734.474 81.0817 732.444 76.705C730.414 72.3283 727.718 69.0617 724.356 66.905C721.058 64.685 717.062 63.5749 712.368 63.5749C705.2 63.5749 699.301 65.2558 694.671 68.6176C690.041 71.916 686.615 76.6099 684.395 82.6992C682.175 88.7885 681.065 96.0195 681.065 104.392C681.065 115.112 682.492 123.992 685.347 131.033C688.265 138.074 692.451 143.339 697.906 146.827C703.424 150.252 710.085 151.965 717.887 151.965C722.01 151.965 725.815 151.489 729.304 150.538C732.793 149.523 736.186 147.874 739.485 145.59C742.846 143.243 746.208 140.135 749.57 136.266L750.807 137.218C746.494 143.18 742.402 147.906 738.533 151.394C734.664 154.883 730.668 157.388 726.545 158.911C722.485 160.37 718.013 161.099 713.129 161.099C704.63 161.099 697.113 159.26 690.58 155.581C684.11 151.902 679.067 146.415 675.452 139.12C671.836 131.763 670.028 122.597 670.028 111.623C670.028 102.299 671.773 93.736 675.261 85.9341C678.75 78.0688 683.824 71.7574 690.485 67.0002C697.145 62.2429 705.169 59.8643 714.556 59.8643Z" fill="#823203"/>
<path d="M666.81 60.0543C668.903 60.0543 670.52 60.6569 671.662 61.862C672.867 63.0038 673.47 64.6213 673.47 66.7145C673.47 69.0614 672.741 70.9643 671.282 72.4232C669.823 73.8187 667.952 74.5164 665.668 74.5164C664.399 74.5164 663.258 74.4212 662.243 74.2309C661.291 73.9772 660.245 73.7235 659.103 73.4698C657.961 73.2161 656.502 73.0892 654.726 73.0892C652.57 73.0892 650.54 73.4064 648.637 74.0407C646.734 74.675 644.641 75.785 642.357 77.3708C640.074 78.8931 637.283 81.0814 633.985 83.9358V81.5571C639.186 76.7364 643.531 72.8989 647.02 70.0445C650.572 67.1902 653.521 65.0336 655.868 63.5747C658.215 62.1158 660.213 61.1643 661.862 60.7203C663.575 60.2763 665.224 60.0543 666.81 60.0543ZM635.507 79.4639V155.485L651.111 157.674V159.196H610.389V157.674L624.375 155.485V70.5203C623.55 70.2031 622.409 69.7908 620.95 69.2834C619.554 68.7759 617.873 68.2051 615.907 67.5708C614.004 66.873 611.879 66.1119 609.532 65.2873V63.765L634.936 58.8174H635.507V79.4639Z" fill="#823203"/>
<path d="M578.657 59.8643C584.493 59.8643 589.314 60.4986 593.12 61.7672C596.989 62.9723 599.875 64.5581 601.778 66.5244C603.681 68.4908 604.632 70.584 604.632 72.804C604.632 74.1361 604.347 75.3413 603.776 76.4196C603.205 77.4345 602.412 78.259 601.397 78.8934C600.446 79.4642 599.304 79.7497 597.972 79.7497C597.464 79.7497 596.672 79.2422 595.593 78.2273C594.578 77.149 593.31 75.817 591.787 74.2312C590.265 72.6455 588.489 71.0597 586.459 69.474C584.493 67.8882 582.305 66.5879 579.894 65.573C577.547 64.4947 574.978 63.9555 572.188 63.9555C565.781 63.9555 560.231 65.6047 555.537 68.9031C550.907 72.138 547.323 76.927 544.786 83.27C542.312 89.5496 541.075 97.2881 541.075 106.486C541.075 116.381 542.439 124.722 545.166 131.509C547.894 138.232 551.89 143.339 557.155 146.827C562.419 150.252 568.857 151.965 576.469 151.965C582.114 151.965 587.379 150.823 592.263 148.54C597.147 146.193 602.19 142.102 607.391 136.266L608.533 137.218C604.093 143.18 599.97 147.906 596.164 151.394C592.422 154.883 588.616 157.388 584.747 158.911C580.877 160.37 576.564 161.099 571.807 161.099C563.624 161.099 556.362 159.291 550.019 155.676C543.739 151.997 538.823 146.605 535.271 139.501C531.782 132.333 530.038 123.548 530.038 113.146C530.038 105.344 531.18 98.2079 533.463 91.738C535.747 85.2047 539.013 79.5594 543.263 74.8021C547.513 70.0448 552.619 66.3659 558.582 63.7652C564.544 61.1646 571.236 59.8643 578.657 59.8643Z" fill="#823203"/>
<path d="M503.452 96.1148L503.833 99.0643C492.859 102.49 484.106 105.661 477.573 108.579C471.103 111.433 466.219 114.224 462.92 116.952C459.685 119.679 457.529 122.438 456.45 125.229C455.435 128.02 454.928 131.065 454.928 134.363C454.928 140.262 456.704 144.924 460.256 148.35C463.808 151.775 468.439 153.488 474.147 153.488C478.714 153.488 482.869 152.568 486.611 150.728C490.354 148.889 493.335 146.256 495.555 142.831C497.839 139.343 498.98 135.251 498.98 130.557V88.408C498.98 81.0501 497.268 75.3731 493.842 71.377C490.417 67.3175 484.804 65.2877 477.002 65.2877C473.196 65.2877 469.39 65.7 465.584 66.5246C461.778 67.2857 458.004 68.4909 454.262 70.1401L460.066 66.6197C459.812 68.9032 459.463 71.0916 459.019 73.1848C458.639 75.2145 458.195 76.9906 457.687 78.5129C457.243 80.0352 456.736 81.1453 456.165 81.843C455.467 82.6676 454.452 83.3336 453.12 83.8411C451.788 84.2851 450.456 84.5071 449.124 84.5071C447.285 84.5071 445.857 84.1582 444.843 83.4605C443.891 82.6993 443.415 81.5893 443.415 80.1304C443.415 77.7835 444.684 75.4365 447.221 73.0896C449.822 70.6793 453.12 68.4909 457.116 66.5246C461.112 64.5582 465.299 63.0042 469.676 61.8625C474.052 60.6573 478.08 60.0547 481.759 60.0547C488.99 60.0547 494.667 61.1647 498.79 63.3848C502.913 65.6048 505.831 68.7446 507.543 72.8042C509.256 76.8637 510.112 81.621 510.112 87.076V143.022C510.112 145.749 510.525 147.874 511.349 149.396C512.174 150.919 513.284 151.997 514.679 152.631C516.075 153.266 517.597 153.583 519.246 153.583C521.403 153.583 523.338 153.329 525.05 152.822C526.826 152.251 528.951 151.236 531.425 149.777V151.489C528.127 154.978 525.05 157.452 522.196 158.911C519.405 160.306 516.36 161.004 513.062 161.004C509.573 161.004 506.719 160.275 504.499 158.816C502.342 157.293 500.82 154.724 499.932 151.109C499.044 147.493 498.695 142.546 498.885 136.266L499.456 135.981C498.314 141.372 496.348 145.939 493.557 149.682C490.766 153.424 487.373 156.278 483.376 158.245C479.444 160.148 475.194 161.099 470.627 161.099C462.318 161.099 455.657 158.974 450.646 154.724C445.699 150.411 443.225 144.227 443.225 136.171C443.225 132.175 443.891 128.623 445.223 125.515C446.555 122.343 449.251 119.33 453.311 116.476C457.37 113.558 463.396 110.482 471.388 107.247C479.38 104.012 490.068 100.301 503.452 96.1148Z" fill="#823203"/>
<path d="M404.595 136.742C404.595 141.88 405.99 145.781 408.781 148.445C411.572 151.046 415.695 152.346 421.15 152.346C424.385 152.346 427.493 152.124 430.474 151.68C433.519 151.173 437.198 150.348 441.511 149.206V150.824C436.056 153.551 431.711 155.613 428.476 157.008C425.241 158.404 422.482 159.355 420.198 159.863C417.915 160.37 415.441 160.624 412.777 160.624C409.352 160.624 406.18 159.831 403.263 158.245C400.345 156.659 397.966 154.249 396.127 151.014C394.351 147.779 393.463 143.688 393.463 138.74V70.521L380.903 64.3365V63.1948C382.616 62.3068 384.107 61.5456 385.375 60.9113C386.644 60.2136 387.849 59.5476 388.991 58.9133C390.132 58.279 391.369 57.5812 392.701 56.8201C394.033 56.0589 395.587 55.1709 397.363 54.156C399.203 53.0777 401.423 51.8408 404.024 50.4453H404.595V65.288V136.742ZM401.169 68.9035V61.7676H438.847L437.705 68.9035H401.169Z" fill="#823203"/>
<path d="M359.379 36.9348C356.461 36.9348 354.177 35.9833 352.528 34.0804C350.879 32.1141 350.054 29.9257 350.054 27.5154C350.054 25.105 350.879 23.0118 352.528 21.2358C354.177 19.3963 356.461 18.4766 359.379 18.4766C362.233 18.4766 364.453 19.3963 366.039 21.2358C367.688 23.0118 368.512 25.105 368.512 27.5154C368.512 29.9257 367.688 32.1141 366.039 34.0804C364.453 35.9833 362.233 36.9348 359.379 36.9348ZM366.039 58.8182V69.9503V155.486L379.74 157.674V159.197H340.92V157.674L354.907 155.486V70.5211C354.209 70.2674 353.035 69.8551 351.386 69.2842C349.801 68.7134 347.993 68.0791 345.963 67.3813C343.997 66.6202 342.03 65.9224 340.064 65.2881V63.7658L365.373 58.8182H366.039Z" fill="#823203"/>
<path d="M296.7 157.674L310.496 155.485V93.8309C310.496 87.5513 309.735 82.5721 308.212 78.8931C306.753 75.2141 304.375 72.5818 301.076 70.996C297.778 69.4103 293.37 68.6174 287.851 68.6174C282.142 68.6174 276.434 69.4737 270.725 71.1863C265.08 72.8989 260.291 74.9604 256.358 77.3708L255.882 75.6582C260.576 72.4232 264.731 69.7591 268.346 67.6659C271.962 65.5727 275.197 63.987 278.051 62.9087C280.969 61.7669 283.728 60.974 286.329 60.53C288.993 60.086 291.752 59.864 294.606 59.864C304.375 59.864 311.32 62.2744 315.443 67.0951C319.566 71.9158 321.628 79.908 321.628 91.0717V155.485L335.424 157.674V159.196H296.7V157.674ZM271.772 159.196H232.952V157.674L246.939 155.485V30.3689C246.114 30.1152 244.814 29.7346 243.038 29.2272C241.262 28.6563 239.2 28.022 236.853 27.3243C234.506 26.6265 232.096 25.8971 229.622 25.1359V23.6136L257.5 18H258.071V46.5436V155.485L271.772 157.674V159.196Z" fill="#823203"/>
<path d="M131.619 33.4144L86.0448 161.1H83.3807L48.7478 28.2765L32.2876 25.0416V23.1387H78.4331V25.0416L61.0215 28.1814L90.6118 145.591H87.7574L131.715 21.1406H134.664L178.716 145.305H176.243L204.691 28.4668L186.994 25.0416V23.1387H225.718V25.0416L209.258 28.562L175.482 161.1H172.817L127.528 35.3173L131.619 33.4144Z" fill="#823203"/>
</svg>
